<svg width="50" height="50" viewBox="0 0 50 50" fill="none" xmlns="http://www.w3.org/2000/svg">
<rect width="50" height="50" rx="8" fill="#181D28"/>
<path d="M31.875 16.25C32.9105 16.25 33.75 17.0895 33.75 18.125C33.75 19.1605 32.9105 20 31.875 20C30.8395 20 30 19.1605 30 18.125C30 17.0895 30.8395 16.25 31.875 16.25Z" stroke="white" stroke-width="2" stroke-linecap="round" stroke-linejoin="round"/>
<path d="M13.4678 23.9299C12.2139 25.3304 12.1869 27.4432 13.3377 28.9296C15.6214 31.8791 18.1209 34.3786 21.0704 36.6622C22.5568 37.8131 24.6696 37.7861 26.0701 36.5322C29.8724 33.1277 33.3544 29.5699 36.7149 25.6599C37.0471 25.2734 37.2549 24.7996 37.3015 24.292C37.5078 22.0475 37.9315 15.5808 36.1754 13.8247C34.4191 12.0685 27.9525 12.4922 25.708 12.6984C25.2004 12.7451 24.7266 12.9529 24.34 13.2851C20.4302 16.6456 16.8723 20.1276 13.4678 23.9299Z" stroke="white" stroke-width="2"/>
<path d="M27.2355 25.4581C27.2621 24.9569 27.4028 24.04 26.6406 23.343M26.6406 23.343C26.4048 23.1274 26.0825 22.9327 25.6436 22.7781C24.0729 22.2245 22.1436 24.0774 23.5084 25.7735C24.242 26.6852 24.8076 26.9656 24.7544 28.001C24.7169 28.7292 24.0015 29.4902 23.0586 29.78C22.2395 30.0319 21.336 29.6985 20.7645 29.0599C20.0667 28.2801 20.1371 27.5451 20.1312 27.2247M26.6406 23.343L27.5008 22.4829M20.8266 29.157L20.0098 29.9739" stroke="white" stroke-width="2" stroke-linecap="round" stroke-linejoin="round"/>
</svg>
