<svg width="50" height="50" viewBox="0 0 50 50" fill="none" xmlns="http://www.w3.org/2000/svg">
<rect width="50" height="50" rx="8" fill="#181D28"/>
<path d="M25 37.5C31.9036 37.5 37.5 31.9036 37.5 25C37.5 18.0964 31.9036 12.5 25 12.5C18.0964 12.5 12.5 18.0964 12.5 25C12.5 31.9036 18.0964 37.5 25 37.5Z" stroke="white" stroke-width="2"/>
<path d="M21.875 30V20" stroke="white" stroke-width="1.5" stroke-linecap="round"/>
<path d="M23.75 20V17.5M26.875 20V17.5" stroke="white" stroke-width="2" stroke-linecap="round"/>
<path d="M23.75 32.5V30M26.875 32.5V30" stroke="white" stroke-width="2" stroke-linecap="round"/>
<path d="M21.875 25H28.125C29.1605 25 30 25.8395 30 26.875V28.125C30 29.1605 29.1605 30 28.125 30H20" stroke="white" stroke-width="2" stroke-linecap="round" stroke-linejoin="round"/>
<path d="M20 20H28.125C29.1605 20 30 20.8395 30 21.875V23.125C30 24.1605 29.1605 25 28.125 25H21.875" stroke="white" stroke-width="2" stroke-linecap="round" stroke-linejoin="round"/>
</svg>
