<svg width="50" height="50" viewBox="0 0 50 50" fill="none" xmlns="http://www.w3.org/2000/svg">
<rect width="50" height="50" rx="8" fill="#181D28"/>
<path d="M31.847 21.2638C31.8563 21.2638 31.8656 21.2638 31.875 21.2638C34.9816 21.2638 37.5 23.7868 37.5 26.8991C37.5 29.7998 35.3125 32.1885 32.5 32.5M31.847 21.2638C31.8655 21.0576 31.875 20.8487 31.875 20.6376C31.875 16.8337 28.797 13.75 25 13.75C21.404 13.75 18.4529 16.5158 18.1505 20.0399M31.847 21.2638C31.7191 22.6845 31.1607 23.9808 30.3035 25.0206M18.1505 20.0399C14.98 20.3422 12.5 23.0174 12.5 26.2729C12.5 29.3021 14.6472 31.829 17.5 32.4091M18.1505 20.0399C18.3478 20.0211 18.5478 20.0115 18.75 20.0115C20.1573 20.0115 21.4559 20.4774 22.5006 21.2638" stroke="white" stroke-width="2" stroke-linecap="round" stroke-linejoin="round"/>
<path d="M25 36.25V26.25M25 36.25C24.1247 36.25 22.4894 33.7571 21.875 33.125M25 36.25C25.8753 36.25 27.5106 33.7571 28.125 33.125" stroke="white" stroke-width="2" stroke-linecap="round" stroke-linejoin="round"/>
</svg>
