<svg width="50" height="50" viewBox="0 0 50 50" fill="none" xmlns="http://www.w3.org/2000/svg">
<rect width="50" height="50" rx="8" fill="#181D28"/>
<path d="M30 27.5C30 28.5355 30.8395 29.375 31.875 29.375C32.9105 29.375 33.75 28.5355 33.75 27.5C33.75 26.4645 32.9105 25.625 31.875 25.625C30.8395 25.625 30 26.4645 30 27.5Z" stroke="white" stroke-width="2"/>
<path d="M33.625 20C33.707 19.5961 33.75 19.1781 33.75 18.75C33.75 15.2982 30.9517 12.5 27.5 12.5C24.0483 12.5 21.25 15.2982 21.25 18.75C21.25 19.1781 21.293 19.5961 21.375 20" stroke="white" stroke-width="2"/>
<path d="M18.75 19.9915H30C33.5355 19.9915 35.3032 19.9916 36.4016 21.0904C37.5 22.1893 37.5 23.9579 37.5 27.4951V29.9964C37.5 33.5336 37.5 35.3022 36.4016 36.4011C35.3032 37.5 33.5355 37.5 30 37.5H22.5C17.786 37.5 15.4289 37.5 13.9645 36.0349C12.5 34.5696 12.5 32.2115 12.5 27.4951V24.994C12.5 20.2776 12.5 17.9195 13.9645 16.4543C15.1433 15.2749 16.9005 15.0449 20 15H22.5" stroke="white" stroke-width="2" stroke-linecap="round"/>
</svg>
